<svg width="40" height="49" viewBox="0 0 40 49" fill="none" xmlns="http://www.w3.org/2000/svg">
<path d="M30.657 0.295895C28.4312 0.552926 25.2812 2.51621 23.7172 4.61621C22.8148 5.81933 22.2843 6.96777 21.825 8.69589L21.5953 9.55996L21.6062 10.4787C21.6172 10.9818 21.6445 11.4521 21.6718 11.5287C21.7429 11.7092 21.8797 11.7365 22.8422 11.742C23.6406 11.7475 23.6898 11.742 24.3734 11.5396C26.2 11.0092 27.5398 10.2107 28.4914 9.07871C28.7211 8.7998 29.0656 8.42793 29.2461 8.24199C29.8476 7.65136 30.6187 6.33886 31.0453 5.20136C31.4718 4.05839 31.6632 2.99746 31.7179 1.48808L31.7507 0.520113L31.6086 0.377926C31.45 0.219332 31.3625 0.213863 30.657 0.295895Z" fill="#717171"/>
<path d="M27.6884 12.0114C26.6056 12.0661 23.6907 12.8754 21.5962 13.6957C20.3274 14.1934 20.3274 14.1934 20.0759 14.2372C19.6384 14.3082 18.5665 13.9965 16.7235 13.2528C15.7446 12.8645 14.7384 12.5692 13.2509 12.2301C12.6274 12.0934 11.5939 12.077 11.1454 12.2028C10.9649 12.252 10.3962 12.3668 9.88214 12.4543C8.77745 12.6512 8.15401 12.8426 7.32276 13.2528C4.8126 14.4778 3.10089 16.2387 1.74464 18.995C1.14307 20.209 0.700105 21.3957 0.37198 22.659C-0.114739 24.5348 -0.125676 28.1332 0.350105 30.3153C0.404792 30.5832 0.454011 30.9004 0.454011 31.0262C0.454011 31.2887 0.50323 31.4856 0.962605 33.2957C1.38917 34.9692 1.34542 34.8325 2.16026 36.8778C3.30323 39.7489 3.66417 40.3832 5.99932 43.6043C6.95635 44.9223 7.44307 45.5239 8.14854 46.2403C8.88682 46.995 9.48292 47.4325 10.3251 47.8481C11.2767 48.3129 11.6923 48.4168 12.5673 48.4114C13.6884 48.4114 14.5907 48.1817 16.3079 47.4598C17.3907 47.0059 17.4618 46.984 19.4306 46.5793C20.0212 46.4536 20.5681 46.4645 21.3993 46.6012C21.6837 46.645 22.1103 46.7106 22.3399 46.7434C22.8048 46.809 23.2751 46.9622 24.4892 47.4489C25.9548 48.0395 26.9884 48.302 28.0712 48.3676C29.6462 48.4661 31.1665 47.7661 32.7907 46.2075C34.4478 44.6051 35.9954 42.4122 37.5595 39.4536C37.9806 38.6551 38.6532 37.02 38.7681 36.5278C38.8173 36.3309 38.8993 36.0848 38.9595 35.9864C39.0142 35.8879 39.0634 35.7512 39.0634 35.6911C39.0634 35.4942 38.6642 35.1825 37.9587 34.827C36.6298 34.1434 35.3228 32.9731 34.4423 31.6551C33.8134 30.709 33.179 29.2926 33.0204 28.4559C32.7524 27.0778 32.6759 25.5684 32.829 24.5184C32.8673 24.245 33.004 23.6707 33.1353 23.2332C33.6985 21.3356 34.0868 20.5754 34.9673 19.6348C35.2353 19.3559 35.454 19.0989 35.454 19.077C35.454 18.984 36.7939 17.8629 37.122 17.6825C37.3024 17.5786 37.5321 17.42 37.6306 17.3215C37.9314 17.0262 37.8876 16.9114 37.1329 16.0254C36.1212 14.8387 34.847 13.8653 33.3485 13.1379C32.4134 12.684 31.7681 12.4598 30.8657 12.2739C29.9415 12.077 28.5634 11.9622 27.6884 12.0114Z" fill="#717171"/>
</svg>
